<svg
      width="142"
      height="43"
      viewBox="0 0 142 43"
      fill="none"
      xmlns="http://www.w3.org/2000/svg"
    >
      <g clipPath="url(#clip0_14266_59222)">
        <path
          d="M136.741 42H5.25926C2.59587 42 0.5 39.8145 0.5 37.25V5.75C0.5 3.08697 2.58939 1 5.25926 1H136.741C139.404 1 141.5 3.18545 141.5 5.75V37.25C141.5 39.913 139.411 42 136.741 42Z"
          fill="#0D0D0D"
          stroke="white"
        />
        <path
          d="M28.5247 21.3167C28.5247 19.3681 29.5674 17.6246 31.2357 16.5991C30.193 15.1632 28.5247 14.2402 26.648 14.1377C24.6669 13.9325 22.8944 15.2658 21.8517 15.2658C20.8091 15.2658 19.3494 14.1377 17.6811 14.1377C15.4915 14.2402 13.6147 15.3684 12.5721 17.2144C10.3825 21.0091 12.0508 26.5472 14.1361 29.6239C15.1787 31.1623 16.4299 32.8032 18.0982 32.7007C19.6622 32.5981 20.2878 31.6751 22.1645 31.6751C24.0413 31.6751 24.6669 32.7007 26.3352 32.5981C28.0034 32.5981 29.1503 31.0598 30.193 29.6239C30.9229 28.5984 31.5485 27.3677 31.9655 26.137C29.8802 25.4191 28.5247 23.4705 28.5247 21.3167Z"
          fill="white"
        />
        <path
          d="M25.3971 12.1891C26.3355 11.0609 26.7526 9.62513 26.6483 8.29187C25.1886 8.39443 23.9374 9.11234 22.999 10.1379C22.0606 11.1635 21.6436 12.5993 21.6436 13.9326C23.1033 13.9326 24.4587 13.2147 25.3971 12.1891Z"
          fill="white"
        />
        <path
          d="M41.0363 14.9582V9.21491H38.8467V8.18933H44.2685V9.11235H42.0789V14.8556H41.0363V14.9582Z"
          fill="white"
        />
        <path
          d="M49.1694 13.6249C48.8566 14.548 47.9182 15.1633 46.9799 15.0608C45.7287 15.0608 44.5817 14.1377 44.5817 12.8045C44.5817 12.7019 44.5817 12.5994 44.5817 12.3942C44.3732 11.061 45.3116 9.93285 46.6671 9.72773C46.7713 9.72773 46.8756 9.72773 46.9799 9.72773C48.4396 9.72773 49.2737 10.6508 49.2737 12.2917V12.5994H45.6244V12.7019C45.5201 13.4198 46.1457 14.1377 46.8756 14.1377H46.9799C47.5012 14.2403 47.9182 13.9326 48.231 13.5224L49.1694 13.6249ZM45.6244 11.984H48.231C48.231 11.2661 47.814 10.7533 47.0841 10.6508H46.9799C46.25 10.6508 45.6244 11.1635 45.6244 11.984C45.6244 11.984 45.6244 11.8815 45.6244 11.984ZM46.3543 9.00983L47.5012 7.3689H48.6481L47.3969 9.00983H46.3543Z"
          fill="white"
        />
        <path d="M50.7334 7.88171H51.7761V14.9582H50.7334V7.88171Z" fill="white" />
        <path
          d="M57.7192 13.6249C57.4064 14.548 56.4681 15.1633 55.5297 15.0608C54.2785 15.0608 53.1315 14.1377 53.1315 12.8045C53.1315 12.7019 53.1315 12.5994 53.1315 12.3942C52.923 11.061 53.8614 9.93285 55.2169 9.72773C55.3211 9.72773 55.4254 9.72773 55.5297 9.72773C56.9894 9.72773 57.8235 10.6508 57.8235 12.2917V12.5994H54.1742V12.7019C54.0699 13.4198 54.6955 14.1377 55.4254 14.1377H55.5297C56.051 14.2403 56.4681 13.9326 56.7808 13.5224L57.7192 13.6249ZM54.1742 11.984H56.7808C56.7808 11.2661 56.3638 10.7533 55.6339 10.6508H55.5297C54.7998 10.6508 54.1742 11.1635 54.1742 11.984C54.1742 11.984 54.1742 11.8815 54.1742 11.984ZM54.9041 9.00983L56.051 7.3689H57.1979L55.9467 9.00983H54.9041Z"
          fill="white"
        />
        <path
          d="M62.6191 11.5738C62.5148 11.061 61.9935 10.6508 61.3679 10.7533C60.5337 10.7533 60.0124 11.3687 60.0124 12.4968C60.0124 13.625 60.5337 14.2403 61.3679 14.2403C61.8892 14.3429 62.4105 13.9326 62.6191 13.4198H63.6617C63.5574 14.4454 62.5148 15.2659 61.4721 15.1633C60.1167 15.1633 59.074 14.2403 59.074 12.9071C59.074 12.8045 59.074 12.5994 59.074 12.4968C58.8655 11.2661 59.8039 10.0354 61.0551 9.93287C61.1593 9.93287 61.3679 9.93287 61.4721 9.93287C62.6191 9.83031 63.5574 10.6508 63.6617 11.6764L62.6191 11.5738Z"
          fill="white"
        />
        <path
          d="M64.9131 7.88171H65.9557V10.6508H66.06C66.3728 10.0354 66.9984 9.72776 67.624 9.72776C68.5624 9.72776 69.3965 10.3431 69.3965 11.2661C69.3965 11.3687 69.3965 11.4712 69.3965 11.5738V14.8557H68.3539V11.7789C68.3539 10.9585 67.9368 10.5482 67.2069 10.5482C66.5813 10.4457 65.9557 10.9585 65.9557 11.6764C65.9557 11.7789 65.9557 11.7789 65.9557 11.8815V14.8557H64.9131V7.88171Z"
          fill="white"
        />
        <path
          d="M70.6475 13.5224C70.6475 12.5994 71.3773 12.0866 72.5242 11.984L73.8797 11.8815V11.4713C73.8797 10.9585 73.5669 10.6508 72.837 10.6508C72.3157 10.6508 71.8986 10.8559 71.7944 11.2661H70.856C70.9603 10.3431 71.7944 9.83032 72.9413 9.83032C74.1925 9.83032 74.9224 10.4457 74.9224 11.5738V15.0608H73.984V14.3429H73.8797C73.5669 14.8557 72.9413 15.1633 72.3157 15.1633C71.4816 15.2659 70.6475 14.6506 70.6475 13.8301C70.6475 13.625 70.6475 13.625 70.6475 13.5224ZM73.984 13.1122V12.702L72.7328 12.8045C72.0029 12.8045 71.6901 13.1122 71.6901 13.5224C71.6901 13.9326 72.1072 14.2403 72.6285 14.2403C73.3584 14.2403 73.8797 13.8301 73.984 13.1122Z"
          fill="white"
        />
        <path
          d="M76.5906 9.83027H77.529V10.6507H77.6332C77.8418 10.1379 78.4674 9.72772 78.9887 9.83027C79.093 9.83027 79.3015 9.83027 79.4058 9.83027V10.8559C79.1972 10.8559 78.9887 10.7533 78.8844 10.7533C78.2588 10.6507 77.6333 11.1635 77.529 11.8814V11.984V14.9582H76.4863L76.5906 9.83027Z"
          fill="white"
        />
        <path
          d="M80.449 15.471H81.4917C81.5959 15.8813 82.013 16.0864 82.7428 16.0864C83.577 16.0864 84.0983 15.6762 84.0983 15.0608V14.0352H83.994C83.6812 14.548 83.0556 14.9582 82.43 14.8557C81.0746 14.8557 80.3447 13.8301 80.3447 12.2917C80.3447 10.7534 81.1789 9.72778 82.5343 9.72778C83.1599 9.72778 83.7855 10.0355 84.2026 10.6508H84.3068V9.83034H85.2452V14.9582C85.2452 16.0864 84.3068 16.9069 82.8471 16.9069C81.3874 16.9069 80.5533 16.2915 80.449 15.471ZM84.0983 12.3943C84.0983 11.3687 83.577 10.7534 82.7428 10.7534C81.9087 10.7534 81.3874 11.3687 81.3874 12.3943C81.3874 13.4199 81.9087 14.0352 82.7428 14.0352C83.577 14.0352 84.0983 13.4199 84.0983 12.3943Z"
          fill="white"
        />
        <path
          d="M91.0835 13.625C90.7707 14.548 89.8323 15.1634 88.8939 15.0608C87.6427 15.0608 86.4958 14.1378 86.4958 12.8045C86.4958 12.702 86.4958 12.5994 86.4958 12.3943C86.2873 11.061 87.2257 9.9329 88.5811 9.72778C88.6854 9.72778 88.7897 9.72778 88.8939 9.72778C90.3536 9.72778 91.1878 10.6508 91.1878 12.2917V12.5994H87.5385V12.702C87.4342 13.4199 88.0598 14.1378 88.7897 14.1378H88.8939C89.4153 14.2403 89.8323 13.9327 90.1451 13.5224L91.0835 13.625ZM87.5385 11.9841H90.1451C90.1451 11.2662 89.728 10.7534 88.9982 10.6508H88.8939C88.0598 10.6508 87.5385 11.1636 87.5385 11.9841C87.5385 11.9841 87.5385 11.8815 87.5385 11.9841Z"
          fill="white"
        />
        <path
          d="M92.5437 9.83027H93.4821V10.6507H93.5864C93.7949 10.1379 94.4205 9.72772 94.9418 9.83027C95.0461 9.83027 95.2546 9.83027 95.3589 9.83027V10.8559C95.1504 10.8559 94.9418 10.7533 94.8376 10.7533C94.212 10.6507 93.5864 11.1635 93.4821 11.8814V11.984V14.9582H92.4395V9.83027H92.5437Z"
          fill="white"
        />
        <path
          d="M99.1123 12.3943C99.1123 10.7533 99.9464 9.72776 101.302 9.72776C101.927 9.72776 102.553 10.0354 102.866 10.6508H102.97V7.88171H104.013V14.9582H103.074V14.1378H102.97C102.657 14.7531 102.032 15.0608 101.302 15.0608C99.9464 15.0608 99.1123 14.0352 99.1123 12.3943ZM100.155 12.3943C100.155 13.5224 100.676 14.1378 101.51 14.1378C102.345 14.1378 102.866 13.5224 102.866 12.3943C102.866 11.3687 102.345 10.6508 101.51 10.6508C100.676 10.6508 100.155 11.3687 100.155 12.3943Z"
          fill="white"
        />
        <path
          d="M105.368 13.5224C105.368 12.5994 106.098 12.0866 107.245 11.984L108.6 11.8815V11.4713C108.6 10.9585 108.288 10.6508 107.558 10.6508C107.036 10.6508 106.619 10.8559 106.515 11.2661H105.577C105.681 10.3431 106.515 9.83032 107.662 9.83032C108.913 9.83032 109.643 10.4457 109.643 11.5738V15.0608H108.705V14.3429H108.6C108.288 14.8557 107.662 15.1633 107.036 15.1633C106.202 15.2659 105.368 14.6506 105.368 13.8301C105.368 13.625 105.368 13.625 105.368 13.5224ZM108.6 13.1122V12.702L107.349 12.8045C106.619 12.8045 106.307 13.1122 106.307 13.5224C106.307 13.9326 106.724 14.2403 107.245 14.2403C107.975 14.2403 108.6 13.8301 108.6 13.1122Z"
          fill="white"
        />
        <path
          d="M111.207 9.83035H112.145V10.6508H112.249C112.562 10.0355 113.084 9.72779 113.813 9.72779C114.752 9.62523 115.586 10.3431 115.586 11.2662C115.586 11.3687 115.586 11.4713 115.586 11.6764V14.9583H114.543V11.8815C114.543 11.061 114.231 10.6508 113.396 10.6508C112.771 10.6508 112.145 11.1636 112.145 11.779C112.145 11.8815 112.145 11.8815 112.145 11.9841V14.9583H111.103V9.83035H111.207Z"
          fill="white"
        />
        <path
          d="M119.131 9.72778C120.278 9.72778 121.008 10.2406 121.112 11.1636H120.174C120.069 10.7534 119.757 10.5482 119.131 10.5482C118.61 10.5482 118.088 10.8559 118.088 11.1636C118.088 11.4713 118.401 11.6764 118.922 11.7789L119.757 11.9841C120.695 12.1892 121.216 12.5994 121.216 13.4199C121.216 14.3429 120.278 15.0608 119.027 15.0608C117.776 15.0608 117.046 14.548 116.941 13.625H117.984C118.193 14.0352 118.61 14.3429 119.131 14.2403C119.757 14.2403 120.174 13.9327 120.174 13.5224C120.174 13.2148 119.965 13.0096 119.444 12.9071L118.505 12.702C117.567 12.4969 117.046 12.0866 117.046 11.2662C117.15 10.4457 117.984 9.72778 119.131 9.72778Z"
          fill="white"
        />
        <path d="M40.5156 18.7528H42.6009V32.8033H40.5156V18.7528Z" fill="white" />
        <path d="M45.207 23.8807L46.354 18.7528H48.4393L46.9795 23.8807H45.207Z" fill="white" />
        <path
          d="M56.5721 29.0086H51.1503L49.7948 32.8033H47.501L52.61 18.7528H55.0081L60.1171 32.8033H57.8233L56.5721 29.0086ZM51.6716 27.2651H55.9465L53.8612 21.1116H53.7569L51.6716 27.2651Z"
          fill="white"
        />
        <path
          d="M71.2739 27.6754C71.2739 30.8547 69.5013 32.9059 66.8947 32.9059C65.5392 33.0084 64.2881 32.2905 63.6625 31.1624V36.1877H61.5771V22.5475H63.6625V24.291C64.3923 23.1629 65.6435 22.4449 66.999 22.4449C69.6056 22.4449 71.2739 24.4961 71.2739 27.6754ZM69.0843 27.6754C69.0843 25.6242 68.0416 24.291 66.3734 24.291C64.7051 24.291 63.6625 25.7268 63.6625 27.6754C63.6625 29.7266 64.8094 31.1624 66.3734 31.1624C68.0416 31.1624 69.0843 29.7266 69.0843 27.6754Z"
          fill="white"
        />
        <path
          d="M82.7426 27.6754C82.7426 30.8547 80.9701 32.9059 78.3635 32.9059C77.008 33.0084 75.7568 32.2905 75.1312 31.1624V36.1877H73.0459V22.5475H75.1312V24.291C75.8611 23.1629 77.1123 22.4449 78.4677 22.4449C81.0744 22.4449 82.7426 24.4961 82.7426 27.6754ZM80.553 27.6754C80.553 25.6242 79.5104 24.291 77.8421 24.291C76.1739 24.291 75.1312 25.7268 75.1312 27.6754C75.1312 29.7266 76.2781 31.1624 77.8421 31.1624C79.5104 31.1624 80.553 29.7266 80.553 27.6754Z"
          fill="white"
        />
        <path
          d="M90.3544 28.9061C90.5629 30.3419 91.9184 31.1624 93.7952 31.1624C95.5677 31.1624 96.9231 30.2394 96.9231 29.0087C96.9231 27.8805 96.1933 27.2652 94.3165 26.8549L92.3354 26.4447C89.7288 25.8294 88.4776 24.5987 88.4776 22.6501C88.4776 20.1887 90.6672 18.5477 93.6909 18.5477C96.7146 18.5477 98.7999 20.1887 98.7999 22.6501H96.6103C96.5061 21.2142 95.2549 20.3938 93.5866 20.3938C91.9184 20.3938 90.6672 21.2142 90.6672 22.4449C90.6672 23.4705 91.3971 23.9833 93.2738 24.4961L94.8378 24.9063C97.7573 25.6242 99.0084 26.7524 99.0084 28.8035C99.0084 31.4701 96.9231 33.111 93.4824 33.111C90.3544 33.111 88.1648 31.4701 88.0605 29.0087L90.3544 28.9061Z"
          fill="white"
        />
        <path
          d="M103.7 20.1887V22.6501H105.681V24.291H103.7V29.9317C103.7 30.8548 104.117 31.265 104.951 31.265C105.16 31.265 105.473 31.265 105.681 31.265V32.9059C105.264 33.0085 104.847 33.0085 104.534 33.0085C102.449 33.0085 101.615 32.188 101.615 30.2394V24.3936H100.051V22.7527H101.511V20.2913H103.7V20.1887Z"
          fill="white"
        />
        <path
          d="M106.828 27.6754C106.828 24.4961 108.705 22.4449 111.729 22.4449C114.752 22.4449 116.629 24.4961 116.629 27.6754C116.629 30.8547 114.752 32.9059 111.729 32.9059C108.705 32.9059 106.828 30.9573 106.828 27.6754ZM114.544 27.6754C114.544 25.4191 113.501 24.1884 111.833 24.1884C110.165 24.1884 109.122 25.5217 109.122 27.6754C109.122 29.9317 110.165 31.1624 111.833 31.1624C113.501 31.1624 114.544 29.9317 114.544 27.6754Z"
          fill="white"
        />
        <path
          d="M118.401 22.5475H120.487V24.291C120.799 23.1629 121.842 22.4449 122.989 22.4449C123.198 22.4449 123.51 22.4449 123.719 22.5475V24.4961C123.406 24.3936 123.093 24.3936 122.781 24.3936C121.634 24.3936 120.591 25.214 120.591 26.4447C120.591 26.5473 120.591 26.6498 120.591 26.7524V32.8033H118.506L118.401 22.5475Z"
          fill="white"
        />
        <path
          d="M133.624 29.8291C133.311 31.6752 131.539 33.0084 129.141 33.0084C126.117 33.0084 124.24 31.0598 124.24 27.778C124.24 24.5987 126.117 22.4449 129.036 22.4449C131.956 22.4449 133.728 24.3936 133.728 27.4703V28.1882H126.43V28.2908C126.326 29.7266 127.368 31.0598 128.932 31.1624C129.036 31.1624 129.141 31.1624 129.245 31.1624C130.288 31.2649 131.226 30.6496 131.643 29.7266L133.624 29.8291ZM126.43 26.7524H131.643C131.747 25.4191 130.705 24.1884 129.245 24.1884C129.141 24.1884 129.141 24.1884 129.036 24.1884C127.577 24.0859 126.43 25.3166 126.43 26.7524Z"
          fill="white"
        />
      </g>
      <defs>
        <clipPath id="clip0_14266_59222">
          <rect width="142" height="42" fill="white" transform="translate(0 0.5)" />
        </clipPath>
      </defs>
    </svg>