<svg
      width="142"
      height="43"
      viewBox="0 0 142 43"
      fill="none"
      xmlns="http://www.w3.org/2000/svg"
    >
      <g clipPath="url(#clip0_14266_59260)">
        <path
          d="M136.741 42H5.25926C2.59587 42 0.5 39.8145 0.5 37.25V5.75C0.5 3.08697 2.58939 1 5.25926 1H136.741C139.404 1 141.5 3.18545 141.5 5.75V37.25C141.5 39.913 139.411 42 136.741 42Z"
          fill="#0D0D0D"
          stroke="white"
        />
        <path
          d="M71.9201 23.7274C69.4134 23.7274 67.4288 25.6174 67.4288 28.2424C67.4288 30.7624 69.4134 32.7574 71.9201 32.7574C74.4269 32.7574 76.4115 30.8674 76.4115 28.2424C76.307 25.5124 74.3225 23.7274 71.9201 23.7274ZM71.9201 30.8674C70.5623 30.8674 69.4134 29.7124 69.4134 28.1374C69.4134 26.5624 70.5623 25.4074 71.9201 25.4074C73.278 25.4074 74.4269 26.4574 74.4269 28.1374C74.4269 29.7124 73.278 30.8674 71.9201 30.8674ZM62.2063 23.7274C59.6995 23.7274 57.715 25.6174 57.715 28.2424C57.715 30.7624 59.6995 32.7574 62.2063 32.7574C64.7131 32.7574 66.6977 30.8674 66.6977 28.2424C66.5932 25.5124 64.6087 23.7274 62.2063 23.7274ZM62.2063 30.8674C60.8485 30.8674 59.6995 29.7124 59.6995 28.1374C59.6995 26.5624 60.8485 25.4074 62.2063 25.4074C63.5642 25.4074 64.7131 26.4574 64.7131 28.1374C64.7131 29.7124 63.4597 30.8674 62.2063 30.8674ZM50.6124 25.0924V26.9824H55.1038C54.9993 28.0324 54.5815 28.8724 54.0593 29.3974C53.4326 30.0274 52.3881 30.7624 50.6124 30.7624C47.7923 30.7624 45.7033 28.5574 45.7033 25.7224C45.7033 22.8874 47.8967 20.6824 50.6124 20.6824C52.0747 20.6824 53.2237 21.3124 54.0593 22.0474L55.4171 20.6824C54.2682 19.6324 52.8059 18.7924 50.7169 18.7924C46.9567 18.7924 43.7188 21.9424 43.7188 25.7224C43.7188 29.5024 46.9567 32.6524 50.7169 32.6524C52.8059 32.6524 54.2682 32.0224 55.5216 30.6574C56.775 29.3974 57.1928 27.6124 57.1928 26.2474C57.1928 25.8274 57.1927 25.4074 57.0883 25.0924H50.6124ZM97.9281 26.5624C97.5103 25.5124 96.4658 23.7274 94.1679 23.7274C91.87 23.7274 89.9899 25.5124 89.9899 28.2424C89.9899 30.7624 91.87 32.7574 94.3768 32.7574C96.3614 32.7574 97.6148 31.4974 98.0326 30.7624L96.5703 29.7124C96.048 30.4474 95.4213 30.9724 94.3768 30.9724C93.3323 30.9724 92.7056 30.5524 92.1834 29.6074L98.137 27.0874L97.9281 26.5624ZM91.87 28.0324C91.87 26.3524 93.2279 25.4074 94.1679 25.4074C94.8991 25.4074 95.6302 25.8274 95.8391 26.3524L91.87 28.0324ZM87.0653 32.3374H89.0499V19.2124H87.0653V32.3374ZM83.8274 24.6724C83.3052 24.1474 82.4696 23.6224 81.4251 23.6224C79.2316 23.6224 77.1426 25.6174 77.1426 28.1374C77.1426 30.6574 79.1272 32.5474 81.4251 32.5474C82.4696 32.5474 83.3052 32.0224 83.723 31.4974H83.8274V32.1274C83.8274 33.8074 82.8874 34.7524 81.4251 34.7524C80.2761 34.7524 79.4405 33.9124 79.2316 33.1774L77.5604 33.9124C78.0827 35.0674 79.3361 36.5374 81.5295 36.5374C83.8274 36.5374 85.7075 35.1724 85.7075 31.9174V23.9374H83.8274V24.6724ZM81.634 30.8674C80.2761 30.8674 79.1272 29.7124 79.1272 28.1374C79.1272 26.5624 80.2761 25.4074 81.634 25.4074C82.9918 25.4074 84.0363 26.5624 84.0363 28.1374C83.9319 29.7124 82.8874 30.8674 81.634 30.8674ZM107.015 19.2124H102.315V32.3374H104.3V27.4024H107.015C109.209 27.4024 111.298 25.8274 111.298 23.3074C111.298 20.7874 109.209 19.2124 107.015 19.2124ZM107.12 25.5124H104.3V20.9974H107.12C108.582 20.9974 109.418 22.2574 109.418 23.2024C109.418 24.3574 108.582 25.5124 107.12 25.5124ZM119.131 23.6224C117.669 23.6224 116.207 24.2524 115.685 25.6174L117.46 26.3524C117.878 25.6174 118.505 25.4074 119.236 25.4074C120.28 25.4074 121.22 26.0374 121.325 27.0874V27.1924C121.011 26.9824 120.176 26.6674 119.34 26.6674C117.46 26.6674 115.58 27.7174 115.58 29.6074C115.58 31.3924 117.147 32.5474 118.818 32.5474C120.176 32.5474 120.803 31.9174 121.325 31.2874H121.429V32.3374H123.309V27.2974C123.1 24.9874 121.429 23.6224 119.131 23.6224ZM118.922 30.8674C118.296 30.8674 117.356 30.5524 117.356 29.7124C117.356 28.6624 118.505 28.3474 119.445 28.3474C120.28 28.3474 120.698 28.5574 121.22 28.7674C121.116 30.0274 120.071 30.8674 118.922 30.8674ZM129.994 23.9374L127.801 29.6074H127.696L125.398 23.9374H123.309L126.756 31.9174L124.772 36.3274H126.756L132.083 23.9374H129.994ZM112.447 32.3374H114.431V19.2124H112.447V32.3374Z"
          fill="white"
        />
        <path
          d="M11.6531 8.7124C11.3398 9.0274 11.1309 9.5524 11.1309 10.1824V33.3874C11.1309 34.0174 11.3398 34.5424 11.6531 34.8574L11.7576 34.9624L24.7093 21.9424V21.8374V21.7324L11.6531 8.7124Z"
          fill="url(#paint0_linear_14266_59260)"
        />
        <path
          d="M28.9914 26.3523L24.709 22.0473V21.9423V21.8373L28.9914 17.5323L29.0959 17.6373L34.2139 20.5773C35.6762 21.4173 35.6762 22.7823 34.2139 23.6223L28.9914 26.3523Z"
          fill="url(#paint1_linear_14266_59260)"
        />
        <path
          d="M29.0964 26.2474L24.7095 21.8374L11.6533 34.9624C12.1756 35.4874 12.9067 35.4874 13.8468 35.0674L29.0964 26.2474Z"
          fill="url(#paint2_linear_14266_59260)"
        />
        <path
          d="M29.0964 17.4274L13.7423 8.7124C12.9067 8.1874 12.0711 8.2924 11.6533 8.7124L24.7095 21.8374L29.0964 17.4274Z"
          fill="url(#paint3_linear_14266_59260)"
        />
        <path
          opacity="0.2"
          d="M28.992 26.1425L13.8468 34.7525C13.0112 35.2775 12.28 35.1725 11.7578 34.7525L11.6533 34.9625L11.7578 35.0675C12.28 35.4875 13.0112 35.5925 13.8468 35.0675L28.992 26.1425Z"
          fill="#0D0D0D"
        />
        <path
          opacity="0.12"
          d="M11.6522 34.7525C11.3394 34.4375 11.1309 33.9125 11.1309 33.2825V33.3875C11.1309 34.0175 11.3394 34.5425 11.6522 34.8575V34.7525Z"
          fill="#0D0D0D"
        />
        <path
          opacity="0.12"
          d="M34.1102 23.2024L28.8877 26.1424L28.9921 26.2474L34.1102 23.3074C34.8413 22.8874 35.1547 22.3624 35.1547 21.8374C35.1547 22.3624 34.8413 22.7824 34.1102 23.2024Z"
          fill="#0D0D0D"
        />
        <path
          opacity="0.25"
          d="M13.7421 8.81742L34.1098 20.4724C34.7365 20.8924 35.1543 21.3124 35.1543 21.8374C35.1543 21.3124 34.8409 20.7874 34.1098 20.3674L13.7421 8.71242C12.2798 7.87242 11.1309 8.60742 11.1309 10.2874V10.3924C11.1309 8.71242 12.2798 7.97742 13.7421 8.81742Z"
          fill="white"
        />
        <path
          d="M43.8232 14.4874V8.18738H45.7033C46.6434 8.18738 47.479 8.50238 48.0012 9.02738C48.6279 9.65738 48.8368 10.3924 48.8368 11.3374C48.8368 12.2824 48.5235 13.0174 48.0012 13.6474C47.3745 14.2774 46.6434 14.4874 45.7033 14.4874H43.8232ZM44.6588 13.7524H45.8078C46.5389 13.7524 47.0612 13.5424 47.479 13.1224C47.8968 12.7024 48.1057 12.0724 48.1057 11.3374C48.1057 10.6024 47.8968 9.97238 47.479 9.55238C47.0612 9.13238 46.4345 8.92238 45.8078 8.92238H44.6588V13.7524Z"
          fill="white"
          stroke="white"
          stroke-width="0.2"
          stroke-miterlimit="10"
        />
        <path
          d="M50.0908 14.4874V8.18738H50.9264V14.4874H50.0908Z"
          fill="white"
          stroke="white"
          stroke-width="0.2"
          stroke-miterlimit="10"
        />
        <path
          d="M54.0597 14.5924C53.6419 14.5924 53.1196 14.4874 52.7018 14.1724C52.284 13.8574 51.9707 13.4374 51.8662 12.9124L52.5974 12.5974C52.7018 12.9124 52.9107 13.2274 53.1196 13.4374C53.433 13.6474 53.7463 13.7524 54.0597 13.7524C54.373 13.7524 54.6864 13.6474 54.9997 13.4374C55.2086 13.2274 55.4175 13.0174 55.4175 12.7024C55.4175 12.3874 55.313 12.0724 54.9997 11.8624C54.7908 11.6524 54.373 11.4424 53.8508 11.3374C53.3285 11.1274 52.9107 10.9174 52.5974 10.7074C52.284 10.3924 52.1796 10.0774 52.1796 9.65742C52.1796 9.23742 52.3885 8.81742 52.7018 8.50242C53.0152 8.18742 53.5374 7.97742 54.0597 7.97742C54.5819 7.97742 54.9997 8.08242 55.313 8.39742C55.6264 8.71242 55.8353 8.92242 55.9397 9.23742L55.2086 9.55242C55.1041 9.34242 54.9997 9.13242 54.7908 9.02742C54.5819 8.81742 54.2686 8.81742 53.9552 8.81742C53.6419 8.81742 53.433 8.92242 53.1196 9.02742C52.9107 9.23742 52.8063 9.44742 52.8063 9.65742C52.8063 9.86742 52.9107 10.0774 53.1196 10.2874C53.3285 10.4974 53.6419 10.6024 54.0597 10.7074C54.373 10.8124 54.5819 10.9174 54.7908 11.0224C54.9997 11.1274 55.2086 11.2324 55.4175 11.4424C55.6264 11.5474 55.8353 11.7574 55.9397 12.0724C56.0442 12.2824 56.1486 12.5974 56.1486 12.9124C56.1486 13.2274 56.0442 13.5424 55.9397 13.7524C55.8353 13.9624 55.6264 14.1724 55.4175 14.2774C55.2086 14.3824 54.9997 14.4874 54.7908 14.5924C54.5819 14.6974 54.2686 14.5924 54.0597 14.5924Z"
          fill="white"
          stroke="white"
          stroke-width="0.2"
          stroke-miterlimit="10"
        />
        <path
          d="M58.1334 14.4874H57.2979V8.18738H59.3868C59.9091 8.18738 60.3269 8.39738 60.7447 8.71238C61.1625 9.02738 61.3714 9.55238 61.3714 10.0774C61.3714 10.6024 61.1625 11.0224 60.7447 11.4424C60.3269 11.7574 59.9091 11.9674 59.3868 11.9674H58.029V14.4874H58.1334ZM58.1334 11.1274H59.4913C59.8046 11.1274 60.118 11.0224 60.3269 10.8124C60.5358 10.6024 60.6402 10.2874 60.6402 10.0774C60.6402 9.76238 60.5358 9.55238 60.3269 9.34238C60.118 9.13238 59.8046 9.02738 59.4913 9.02738H58.1334V11.1274Z"
          fill="white"
          stroke="white"
          stroke-width="0.2"
          stroke-miterlimit="10"
        />
        <path
          d="M67.5339 13.6474C66.9072 14.2774 66.176 14.5924 65.236 14.5924C64.2959 14.5924 63.5648 14.2774 62.9381 13.6474C62.3114 13.0174 61.998 12.2824 61.998 11.3374C61.998 10.3924 62.3114 9.6574 62.9381 9.0274C63.5648 8.3974 64.2959 8.0824 65.236 8.0824C66.176 8.0824 66.9072 8.3974 67.5339 9.0274C68.1606 9.6574 68.4739 10.3924 68.4739 11.3374C68.4739 12.2824 68.1606 13.0174 67.5339 13.6474ZM63.5648 13.1224C63.9826 13.5424 64.6093 13.8574 65.236 13.8574C65.8627 13.8574 66.4894 13.6474 66.9072 13.1224C67.325 12.7024 67.6383 12.0724 67.6383 11.3374C67.6383 10.6024 67.4294 9.9724 66.9072 9.5524C66.4894 9.1324 65.8627 8.8174 65.236 8.8174C64.6093 8.8174 63.9826 9.0274 63.5648 9.5524C63.147 9.9724 62.8336 10.6024 62.8336 11.3374C62.8336 12.0724 63.0425 12.7024 63.5648 13.1224Z"
          fill="white"
          stroke="white"
          stroke-width="0.2"
          stroke-miterlimit="10"
        />
        <path
          d="M69.623 14.4874V8.18738H70.5631L73.5921 13.1224V11.8624V8.18738H74.4277V14.4874H73.5921L70.3542 9.34238V10.6024V14.4874H69.623Z"
          fill="white"
          stroke="white"
          stroke-width="0.2"
          stroke-miterlimit="10"
        />
        <path
          d="M75.8896 14.4874V8.18738H76.7252V14.4874H75.8896Z"
          fill="white"
          stroke="white"
          stroke-width="0.2"
          stroke-miterlimit="10"
        />
        <path
          d="M78.083 14.4874V8.18738H80.3809C80.9031 8.18738 81.3209 8.39738 81.6343 8.71238C81.9476 9.02738 82.1565 9.44738 82.1565 9.97238C82.1565 10.2874 82.0521 10.4974 81.9476 10.8124C81.8432 11.0224 81.6343 11.2324 81.3209 11.3374C81.6343 11.4424 81.8432 11.6524 82.0521 11.8624C82.261 12.0724 82.3654 12.3874 82.3654 12.8074C82.3654 13.3324 82.1565 13.7524 81.8432 14.0674C81.4254 14.3824 81.0076 14.5924 80.4853 14.5924H78.083V14.4874ZM78.9186 10.9174H80.3809C80.6942 10.9174 80.9031 10.8124 81.112 10.6024C81.3209 10.3924 81.4254 10.1824 81.4254 9.97238C81.4254 9.76238 81.3209 9.55238 81.112 9.34238C80.9031 9.13238 80.6942 9.02738 80.3809 9.02738H78.9186V10.9174ZM78.9186 13.7524H80.5898C80.9031 13.7524 81.112 13.6474 81.3209 13.4374C81.5298 13.2274 81.6343 13.0174 81.6343 12.7024C81.6343 12.4924 81.5298 12.1774 81.3209 11.9674C81.112 11.7574 80.9031 11.6524 80.5898 11.6524H79.0231V13.7524H78.9186Z"
          fill="white"
          stroke="white"
          stroke-width="0.2"
          stroke-miterlimit="10"
        />
        <path
          d="M83.5146 14.4874V8.18738H84.3502V13.7524H87.0659V14.4874H83.5146Z"
          fill="white"
          stroke="white"
          stroke-width="0.2"
          stroke-miterlimit="10"
        />
        <path
          d="M91.6616 8.9224H88.8415V10.9174H91.4527V11.6524H88.8415V13.6474H91.6616V14.3824H88.0059V8.0824H91.6616V8.9224Z"
          fill="white"
          stroke="white"
          stroke-width="0.2"
          stroke-miterlimit="10"
        />
        <path
          d="M96.5704 14.5924C96.1526 14.5924 95.6304 14.4874 95.2126 14.1724C94.7948 13.8574 94.4814 13.4374 94.377 12.9124L95.1081 12.5974C95.2125 12.9124 95.4214 13.2274 95.6303 13.4374C95.9437 13.6474 96.257 13.7524 96.5704 13.7524C96.8837 13.7524 97.1971 13.6474 97.5104 13.4374C97.7193 13.2274 97.9282 13.0174 97.9282 12.7024C97.9282 12.3874 97.8238 12.0724 97.5104 11.8624C97.3015 11.6524 96.8837 11.4424 96.3615 11.3374C95.8392 11.1274 95.4214 10.9174 95.1081 10.7074C94.7947 10.3924 94.6903 10.0774 94.6903 9.6574C94.6903 9.2374 94.8992 8.8174 95.2126 8.5024C95.4215 8.1874 95.9437 8.0824 96.4659 8.0824C96.9882 8.0824 97.406 8.1874 97.7193 8.5024C98.0327 8.8174 98.2416 9.0274 98.346 9.3424L97.6149 9.6574C97.5104 9.4474 97.406 9.2374 97.1971 9.1324C96.9882 8.9224 96.6748 8.9224 96.3615 8.9224C96.0481 8.9224 95.8392 9.0274 95.5259 9.1324C95.5259 9.2374 95.4214 9.4474 95.4214 9.7624C95.4214 9.9724 95.5259 10.1824 95.7348 10.3924C95.9437 10.6024 96.257 10.7074 96.6748 10.8124C96.9882 10.9174 97.1971 11.0224 97.406 11.1274C97.6149 11.2324 97.8238 11.3374 98.0327 11.5474C98.2416 11.6524 98.4505 11.8624 98.5549 12.1774C98.6594 12.3874 98.7638 12.7024 98.7638 13.0174C98.7638 13.3324 98.6594 13.6474 98.5549 13.8574C98.4505 14.0674 98.2416 14.2774 98.0327 14.3824C97.8238 14.4874 97.6149 14.5924 97.406 14.6974C97.1971 14.8024 96.7793 14.5924 96.5704 14.5924Z"
          fill="white"
          stroke="white"
          stroke-width="0.2"
          stroke-miterlimit="10"
        />
        <path
          d="M102.002 14.5924C101.271 14.5924 100.749 14.3824 100.331 13.8574C99.913 13.4374 99.7041 12.8074 99.7041 12.0724V8.18738H100.54V12.1774C100.54 12.7024 100.644 13.1224 100.958 13.4374C101.166 13.7524 101.584 13.8574 102.106 13.8574C102.629 13.8574 102.942 13.7524 103.255 13.4374C103.464 13.1224 103.673 12.7024 103.673 12.1774V8.18738H104.509V12.1774C104.509 12.9124 104.3 13.5424 103.882 13.9624C103.255 14.3824 102.733 14.5924 102.002 14.5924Z"
          fill="white"
          stroke="white"
          stroke-width="0.2"
          stroke-miterlimit="10"
        />
        <path
          d="M105.554 14.4874V8.18738H107.643C108.165 8.18738 108.583 8.39738 109.001 8.71238C109.418 9.02738 109.627 9.55238 109.627 10.0774C109.627 10.4974 109.523 10.9174 109.209 11.2324C108.896 11.5474 108.583 11.7574 108.165 11.8624L109.941 14.3824H109.001L107.329 11.8624H106.389V14.3824H105.554V14.4874ZM106.389 11.2324H107.643C107.956 11.2324 108.269 11.1274 108.478 10.9174C108.687 10.7074 108.792 10.3924 108.792 10.0774C108.792 9.76238 108.687 9.55238 108.478 9.34238C108.269 9.13238 107.956 9.02738 107.643 9.02738H106.285V11.2324H106.389Z"
          fill="white"
          stroke="white"
          stroke-width="0.2"
          stroke-miterlimit="10"
        />
      </g>
      <defs>
        <linearGradient
          id="paint0_linear_14266_59260"
          x1="23.4905"
          y1="9.99204"
          x2="5.86921"
          y2="27.5209"
          gradientUnits="userSpaceOnUse"
        >
          <stop stop-color="#00A0FF" />
          <stop offset="0.00657445" stop-color="#00A1FF" />
          <stop offset="0.2601" stop-color="#00BEFF" />
          <stop offset="0.5122" stop-color="#00D2FF" />
          <stop offset="0.7604" stop-color="#00DFFF" />
          <stop offset="1" stop-color="#00E3FF" />
        </linearGradient>
        <linearGradient
          id="paint1_linear_14266_59260"
          x1="36.0603"
          y1="21.8483"
          x2="10.7867"
          y2="21.8483"
          gradientUnits="userSpaceOnUse"
        >
          <stop stop-color="#FFE000" />
          <stop offset="0.4087" stop-color="#FFBD00" />
          <stop offset="0.7754" stop-color="#FFA500" />
          <stop offset="1" stop-color="#FF9C00" />
        </linearGradient>
        <linearGradient
          id="paint2_linear_14266_59260"
          x1="26.6526"
          y1="24.2578"
          x2="2.75672"
          y2="48.0284"
          gradientUnits="userSpaceOnUse"
        >
          <stop stop-color="#FF3A44" />
          <stop offset="1" stop-color="#C31162" />
        </linearGradient>
        <linearGradient
          id="paint3_linear_14266_59260"
          x1="8.343"
          y1="1.03186"
          x2="19.0135"
          y2="11.6464"
          gradientUnits="userSpaceOnUse"
        >
          <stop stop-color="#32A071" />
          <stop offset="0.0685" stop-color="#2DA771" />
          <stop offset="0.4762" stop-color="#15CF74" />
          <stop offset="0.8009" stop-color="#06E775" />
          <stop offset="1" stop-color="#00F076" />
        </linearGradient>
        <clipPath id="clip0_14266_59260">
          <rect width="142" height="42" fill="white" transform="translate(0 0.5)" />
        </clipPath>
      </defs>
    </svg>